  0
SECTION
  2
HEADER
  9
$ACADVER
  1
AC1009
  9
$EXTMIN
 10
0.0
 20
0.0
 30
0.0
  9
$EXTMAX
 10
1000.0
 20
1000.0
 30
0.0
  9
$FILLMODE
 70
 0
  9
$SPLFRAME
 70
 1
  0
ENDSEC
  0
SECTION
  2
TABLES
  0
TABLE
  2
LAYER
 70
1
  0
LAYER
  2
0
 70
     0
 62
     7
  6
CONTINUOUS
  0
ENDTAB
  0
ENDSEC
  0
SECTION
  2
ENTITIES
  0
LINE
  8
0
 62
     0
 10
152.349
 20
48.8128
 30
0.0
 11
78.8155
 21
0.0592557
 31
0.0
  0
LINE
  8
0
 62
     0
 10
78.8155
 20
0.0592557
 30
0.0
 11
51.5013
 21
15.762
 31
0.0
  0
LINE
  8
0
 62
     0
 10
51.5013
 20
15.762
 30
0.0
 11
51.3652
 21
20.9269
 31
0.0
  0
LINE
  8
0
 62
     0
 10
51.3652
 20
20.9269
 30
0.0
 11
51.2643
 21
25.3655
 31
0.0
  0
LINE
  8
0
 62
     0
 10
51.2643
 20
25.3655
 30
0.0
 11
51.2025
 21
29.0614
 31
0.0
  0
LINE
  8
0
 62
     0
 10
51.2025
 20
29.0614
 30
0.0
 11
51.1845
 21
32.0008
 31
0.0
  0
LINE
  8
0
 62
     0
 10
51.1845
 20
32.0008
 30
0.0
 11
51.2106
 21
34.349
 31
0.0
  0
LINE
  8
0
 62
     0
 10
51.2106
 20
34.349
 30
0.0
 11
51.2921
 21
36.1474
 31
0.0
  0
LINE
  8
0
 62
     0
 10
51.2921
 20
36.1474
 30
0.0
 11
51.4283
 21
37.4812
 31
0.0
  0
LINE
  8
0
 62
     0
 10
51.4283
 20
37.4812
 30
0.0
 11
51.6283
 21
38.4362
 31
0.0
  0
LINE
  8
0
 62
     0
 10
51.6283
 20
38.4362
 30
0.0
 11
51.8915
 21
39.0977
 31
0.0
  0
LINE
  8
0
 62
     0
 10
51.8915
 20
39.0977
 30
0.0
 11
52.2235
 21
39.551
 31
0.0
  0
LINE
  8
0
 62
     0
 10
52.2235
 20
39.551
 30
0.0
 11
52.6302
 21
39.8805
 31
0.0
  0
LINE
  8
0
 62
     0
 10
52.6302
 20
39.8805
 30
0.0
 11
53.1139
 21
40.1712
 31
0.0
  0
LINE
  8
0
 62
     0
 10
53.1139
 20
40.1712
 30
0.0
 11
55.5971
 21
42.0218
 31
0.0
  0
LINE
  8
0
 62
     0
 10
55.5971
 20
42.0218
 30
0.0
 11
57.664
 21
44.4542
 31
0.0
  0
LINE
  8
0
 62
     0
 10
57.664
 20
44.4542
 30
0.0
 11
59.2861
 21
47.3989
 31
0.0
  0
LINE
  8
0
 62
     0
 10
59.2861
 20
47.3989
 30
0.0
 11
60.4407
 21
50.7848
 31
0.0
  0
LINE
  8
0
 62
     0
 10
60.4407
 20
50.7848
 30
0.0
 11
58.7058
 21
49.6743
 31
0.0
  0
LINE
  8
0
 62
     0
 10
58.7058
 20
49.6743
 30
0.0
 11
56.6441
 21
48.3803
 31
0.0
  0
LINE
  8
0
 62
     0
 10
56.6441
 20
48.3803
 30
0.0
 11
54.314
 21
46.9417
 31
0.0
  0
LINE
  8
0
 62
     0
 10
54.314
 20
46.9417
 30
0.0
 11
51.7772
 21
45.3884
 31
0.0
  0
LINE
  8
0
 62
     0
 10
51.7772
 20
45.3884
 30
0.0
 11
49.0897
 21
43.7568
 31
0.0
  0
LINE
  8
0
 62
     0
 10
49.0897
 20
43.7568
 30
0.0
 11
46.313
 21
42.0825
 31
0.0
  0
LINE
  8
0
 62
     0
 10
46.313
 20
42.0825
 30
0.0
 11
43.5074
 21
40.3959
 31
0.0
  0
LINE
  8
0
 62
     0
 10
43.5074
 20
40.3959
 30
0.0
 11
40.7321
 21
38.7354
 31
0.0
  0
LINE
  8
0
 62
     0
 10
40.7321
 20
38.7354
 30
0.0
 11
38.045
 21
37.1313
 31
0.0
  0
LINE
  8
0
 62
     0
 10
38.045
 20
37.1313
 30
0.0
 11
35.5064
 21
35.6196
 31
0.0
  0
LINE
  8
0
 62
     0
 10
35.5064
 20
35.6196
 30
0.0
 11
33.1777
 21
34.236
 31
0.0
  0
LINE
  8
0
 62
     0
 10
33.1777
 20
34.236
 30
0.0
 11
31.1147
 21
33.0123
 31
0.0
  0
LINE
  8
0
 62
     0
 10
31.1147
 20
33.0123
 30
0.0
 11
29.3812
 21
31.9829
 31
0.0
  0
LINE
  8
0
 62
     0
 10
29.3812
 20
31.9829
 30
0.0
 11
28.0334
 21
31.1822
 31
0.0
  0
LINE
  8
0
 62
     0
 10
28.0334
 20
31.1822
 30
0.0
 11
27.1322
 21
30.6448
 31
0.0
  0
LINE
  8
0
 62
     0
 10
27.1322
 20
30.6448
 30
0.0
 11
26.7381
 21
30.405
 31
0.0
  0
LINE
  8
0
 62
     0
 10
26.7381
 20
30.405
 30
0.0
 11
26.4253
 21
30.3293
 31
0.0
  0
LINE
  8
0
 62
     0
 10
26.4253
 20
30.3293
 30
0.0
 11
25.5695
 21
30.6173
 31
0.0
  0
LINE
  8
0
 62
     0
 10
25.5695
 20
30.6173
 30
0.0
 11
24.2466
 21
31.2195
 31
0.0
  0
LINE
  8
0
 62
     0
 10
24.2466
 20
31.2195
 30
0.0
 11
22.5364
 21
32.0876
 31
0.0
  0
LINE
  8
0
 62
     0
 10
22.5364
 20
32.0876
 30
0.0
 11
20.5148
 21
33.1694
 31
0.0
  0
LINE
  8
0
 62
     0
 10
20.5148
 20
33.1694
 30
0.0
 11
18.2604
 21
34.4179
 31
0.0
  0
LINE
  8
0
 62
     0
 10
18.2604
 20
34.4179
 30
0.0
 11
15.8516
 21
35.7823
 31
0.0
  0
LINE
  8
0
 62
     0
 10
15.8516
 20
35.7823
 30
0.0
 11
13.3656
 21
37.2124
 31
0.0
  0
LINE
  8
0
 62
     0
 10
13.3656
 20
37.2124
 30
0.0
 11
10.8796
 21
38.6609
 31
0.0
  0
LINE
  8
0
 62
     0
 10
10.8796
 20
38.6609
 30
0.0
 11
8.47355
 21
40.0773
 31
0.0
  0
LINE
  8
0
 62
     0
 10
8.47355
 20
40.0773
 30
0.0
 11
6.22321
 21
41.4101
 31
0.0
  0
LINE
  8
0
 62
     0
 10
6.22321
 20
41.4101
 30
0.0
 11
4.20853
 21
42.6131
 31
0.0
  0
LINE
  8
0
 62
     0
 10
4.20853
 20
42.6131
 30
0.0
 11
2.50527
 21
43.6344
 31
0.0
  0
LINE
  8
0
 62
     0
 10
2.50527
 20
43.6344
 30
0.0
 11
1.192
 21
44.4253
 31
0.0
  0
LINE
  8
0
 62
     0
 10
1.192
 20
44.4253
 30
0.0
 11
0.347266
 21
44.9365
 31
0.0
  0
LINE
  8
0
 62
     0
 10
0.347266
 20
44.9365
 30
0.0
 11
0.0496094
 21
45.1171
 31
0.0
  0
LINE
  8
0
 62
     0
 10
0.0496094
 20
45.1171
 30
0.0
 11
0.468535
 21
129.465
 31
0.0
  0
LINE
  8
0
 62
     0
 10
0.468535
 20
129.465
 30
0.0
 11
27.6558
 21
146.097
 31
0.0
  0
LINE
  8
0
 62
     0
 10
27.6558
 20
146.097
 30
0.0
 11
44.7643
 21
136.724
 31
0.0
  0
LINE
  8
0
 62
     0
 10
44.7643
 20
136.724
 30
0.0
 11
44.6624
 21
132.985
 31
0.0
  0
LINE
  8
0
 62
     0
 10
44.6624
 20
132.985
 30
0.0
 11
44.6525
 21
130.019
 31
0.0
  0
LINE
  8
0
 62
     0
 10
44.6525
 20
130.019
 30
0.0
 11
44.698
 21
127.732
 31
0.0
  0
LINE
  8
0
 62
     0
 10
44.698
 20
127.732
 30
0.0
 11
44.7643
 21
126.024
 31
0.0
  0
LINE
  8
0
 62
     0
 10
44.7643
 20
126.024
 30
0.0
 11
44.88
 21
125.593
 31
0.0
  0
LINE
  8
0
 62
     0
 10
44.88
 20
125.593
 30
0.0
 11
45.1651
 21
125.013
 31
0.0
  0
LINE
  8
0
 62
     0
 10
45.1651
 20
125.013
 30
0.0
 11
45.5732
 21
124.34
 31
0.0
  0
LINE
  8
0
 62
     0
 10
45.5732
 20
124.34
 30
0.0
 11
46.0527
 21
123.627
 31
0.0
  0
LINE
  8
0
 62
     0
 10
46.0527
 20
123.627
 30
0.0
 11
46.5586
 21
122.928
 31
0.0
  0
LINE
  8
0
 62
     0
 10
46.5586
 20
122.928
 30
0.0
 11
47.0394
 21
122.297
 31
0.0
  0
LINE
  8
0
 62
     0
 10
47.0394
 20
122.297
 30
0.0
 11
47.4486
 21
121.788
 31
0.0
  0
LINE
  8
0
 62
     0
 10
47.4486
 20
121.788
 30
0.0
 11
47.7379
 21
121.455
 31
0.0
  0
LINE
  8
0
 62
     0
 10
47.7379
 20
121.455
 30
0.0
 11
47.7492
 21
122.45
 31
0.0
  0
LINE
  8
0
 62
     0
 10
47.7492
 20
122.45
 30
0.0
 11
47.7668
 21
123.325
 31
0.0
  0
LINE
  8
0
 62
     0
 10
47.7668
 20
123.325
 30
0.0
 11
47.7905
 21
124.142
 31
0.0
  0
LINE
  8
0
 62
     0
 10
47.7905
 20
124.142
 30
0.0
 11
47.8166
 21
124.962
 31
0.0
  0
LINE
  8
0
 62
     0
 10
47.8166
 20
124.962
 30
0.0
 11
47.8441
 21
125.845
 31
0.0
  0
LINE
  8
0
 62
     0
 10
47.8441
 20
125.845
 30
0.0
 11
47.8702
 21
126.851
 31
0.0
  0
LINE
  8
0
 62
     0
 10
47.8702
 20
126.851
 30
0.0
 11
47.8966
 21
128.042
 31
0.0
  0
LINE
  8
0
 62
     0
 10
47.8966
 20
128.042
 30
0.0
 11
47.9185
 21
129.476
 31
0.0
  0
LINE
  8
0
 62
     0
 10
47.9185
 20
129.476
 30
0.0
 11
47.9337
 21
131.217
 31
0.0
  0
LINE
  8
0
 62
     0
 10
47.9337
 20
131.217
 30
0.0
 11
47.9432
 21
133.322
 31
0.0
  0
LINE
  8
0
 62
     0
 10
47.9432
 20
133.322
 30
0.0
 11
47.9446
 21
135.855
 31
0.0
  0
LINE
  8
0
 62
     0
 10
47.9446
 20
135.855
 30
0.0
 11
47.9365
 21
138.875
 31
0.0
  0
LINE
  8
0
 62
     0
 10
47.9365
 20
138.875
 30
0.0
 11
47.9143
 21
142.441
 31
0.0
  0
LINE
  8
0
 62
     0
 10
47.9143
 20
142.441
 30
0.0
 11
47.8801
 21
146.615
 31
0.0
  0
LINE
  8
0
 62
     0
 10
47.8801
 20
146.615
 30
0.0
 11
47.8303
 21
151.457
 31
0.0
  0
LINE
  8
0
 62
     0
 10
47.8303
 20
151.457
 30
0.0
 11
47.7643
 21
157.029
 31
0.0
  0
LINE
  8
0
 62
     0
 10
47.7643
 20
157.029
 30
0.0
 11
74.1179
 21
173.182
 31
0.0
  0
LINE
  8
0
 62
     0
 10
74.1179
 20
173.182
 30
0.0
 11
150.578
 21
130.266
 31
0.0
  0
LINE
  8
0
 62
     0
 10
150.578
 20
130.266
 30
0.0
 11
149.38
 21
98.0641
 31
0.0
  0
LINE
  8
0
 62
     0
 10
149.38
 20
98.0641
 30
0.0
 11
132.245
 21
87.2324
 31
0.0
  0
LINE
  8
0
 62
     0
 10
132.245
 20
87.2324
 30
0.0
 11
131.816
 21
87.5069
 31
0.0
  0
LINE
  8
0
 62
     0
 10
131.816
 20
87.5069
 30
0.0
 11
130.654
 21
88.2276
 31
0.0
  0
LINE
  8
0
 62
     0
 10
130.654
 20
88.2276
 30
0.0
 11
128.939
 21
89.2457
 31
0.0
  0
LINE
  8
0
 62
     0
 10
128.939
 20
89.2457
 30
0.0
 11
126.854
 21
90.4102
 31
0.0
  0
LINE
  8
0
 62
     0
 10
126.854
 20
90.4102
 30
0.0
 11
124.58
 21
91.5734
 31
0.0
  0
LINE
  8
0
 62
     0
 10
124.58
 20
91.5734
 30
0.0
 11
122.301
 21
92.5834
 31
0.0
  0
LINE
  8
0
 62
     0
 10
122.301
 20
92.5834
 30
0.0
 11
120.197
 21
93.2917
 31
0.0
  0
LINE
  8
0
 62
     0
 10
120.197
 20
93.2917
 30
0.0
 11
118.451
 21
93.5468
 31
0.0
  0
LINE
  8
0
 62
     0
 10
118.451
 20
93.5468
 30
0.0
 11
116.458
 21
93.4819
 31
0.0
  0
LINE
  8
0
 62
     0
 10
116.458
 20
93.4819
 30
0.0
 11
115.091
 21
93.376
 31
0.0
  0
LINE
  8
0
 62
     0
 10
115.091
 20
93.376
 30
0.0
 11
114.272
 21
93.2684
 31
0.0
  0
LINE
  8
0
 62
     0
 10
114.272
 20
93.2684
 30
0.0
 11
113.928
 21
93.2021
 31
0.0
  0
LINE
  8
0
 62
     0
 10
113.928
 20
93.2021
 30
0.0
 11
114.241
 21
93.012
 31
0.0
  0
LINE
  8
0
 62
     0
 10
114.241
 20
93.012
 30
0.0
 11
152.699
 21
73.3213
 31
0.0
  0
LINE
  8
0
 62
     0
 10
152.699
 20
73.3213
 30
0.0
 11
152.349
 21
48.8128
 31
0.0
  0
LINE
  8
0
 62
     0
 10
96.1362
 20
78.7344
 30
0.0
 11
92.3548
 21
70.7101
 31
0.0
  0
LINE
  8
0
 62
     0
 10
92.3548
 20
70.7101
 30
0.0
 11
90.23
 21
62.6442
 31
0.0
  0
LINE
  8
0
 62
     0
 10
90.23
 20
62.6442
 30
0.0
 11
89.9929
 21
58.8617
 31
0.0
  0
LINE
  8
0
 62
     0
 10
89.9929
 20
58.8617
 30
0.0
 11
90.1926
 21
55.2372
 31
0.0
  0
LINE
  8
0
 62
     0
 10
90.1926
 20
55.2372
 30
0.0
 11
90.8322
 21
51.828
 31
0.0
  0
LINE
  8
0
 62
     0
 10
90.8322
 20
51.828
 30
0.0
 11
91.9166
 21
48.6847
 31
0.0
  0
LINE
  8
0
 62
     0
 10
91.9166
 20
48.6847
 30
0.0
 11
93.3552
 21
46.0266
 31
0.0
  0
LINE
  8
0
 62
     0
 10
93.3552
 20
46.0266
 30
0.0
 11
95.1438
 21
43.8079
 31
0.0
  0
LINE
  8
0
 62
     0
 10
95.1438
 20
43.8079
 30
0.0
 11
97.2566
 21
42.0578
 31
0.0
  0
LINE
  8
0
 62
     0
 10
97.2566
 20
42.0578
 30
0.0
 11
99.6668
 21
40.8023
 31
0.0
  0
LINE
  8
0
 62
     0
 10
99.6668
 20
40.8023
 30
0.0
 11
101.076
 21
40.3849
 31
0.0
  0
LINE
  8
0
 62
     0
 10
101.076
 20
40.3849
 30
0.0
 11
103.419
 21
39.9905
 31
0.0
  0
LINE
  8
0
 62
     0
 10
103.419
 20
39.9905
 30
0.0
 11
106.358
 21
39.9217
 31
0.0
  0
LINE
  8
0
 62
     0
 10
106.358
 20
39.9217
 30
0.0
 11
109.565
 21
40.4784
 31
0.0
  0
LINE
  8
0
 62
     0
 10
109.565
 20
40.4784
 30
0.0
 11
112.773
 21
41.6828
 31
0.0
  0
LINE
  8
0
 62
     0
 10
112.773
 20
41.6828
 30
0.0
 11
116.091
 21
43.44
 31
0.0
  0
LINE
  8
0
 62
     0
 10
116.091
 20
43.44
 30
0.0
 11
119.421
 21
45.7701
 31
0.0
  0
LINE
  8
0
 62
     0
 10
119.421
 20
45.7701
 30
0.0
 11
122.663
 21
48.6943
 31
0.0
  0
LINE
  8
0
 62
     0
 10
122.663
 20
48.6943
 30
0.0
 11
125.72
 21
52.2344
 31
0.0
  0
LINE
  8
0
 62
     0
 10
125.72
 20
52.2344
 30
0.0
 11
128.492
 21
56.4113
 31
0.0
  0
LINE
  8
0
 62
     0
 10
128.492
 20
56.4113
 30
0.0
 11
130.885
 21
61.2454
 31
0.0
  0
LINE
  8
0
 62
     0
 10
130.885
 20
61.2454
 30
0.0
 11
132.796
 21
66.7575
 31
0.0
  0
LINE
  8
0
 62
     0
 10
132.796
 20
66.7575
 30
0.0
 11
128.661
 21
69.0492
 31
0.0
  0
LINE
  8
0
 62
     0
 10
128.661
 20
69.0492
 30
0.0
 11
123.883
 21
71.6361
 31
0.0
  0
LINE
  8
0
 62
     0
 10
123.883
 20
71.6361
 30
0.0
 11
118.788
 21
74.3521
 31
0.0
  0
LINE
  8
0
 62
     0
 10
118.788
 20
74.3521
 30
0.0
 11
113.702
 21
77.0378
 31
0.0
  0
LINE
  8
0
 62
     0
 10
113.702
 20
77.0378
 30
0.0
 11
108.95
 21
79.5281
 31
0.0
  0
LINE
  8
0
 62
     0
 10
108.95
 20
79.5281
 30
0.0
 11
104.86
 21
81.6599
 31
0.0
  0
LINE
  8
0
 62
     0
 10
104.86
 20
81.6599
 30
0.0
 11
101.758
 21
83.2707
 31
0.0
  0
LINE
  8
0
 62
     0
 10
101.758
 20
83.2707
 30
0.0
 11
99.9698
 21
84.1954
 31
0.0
  0
LINE
  8
0
 62
     0
 10
99.9698
 20
84.1954
 30
0.0
 11
97.9689
 21
81.5827
 31
0.0
  0
LINE
  8
0
 62
     0
 10
97.9689
 20
81.5827
 30
0.0
 11
96.1362
 21
78.7344
 31
0.0
  0
LINE
  8
0
 62
     0
 10
74.4844
 20
169.694
 30
0.0
 11
50.982
 21
155.4
 31
0.0
  0
LINE
  8
0
 62
     0
 10
50.982
 20
155.4
 30
0.0
 11
62.6251
 21
149.151
 31
0.0
  0
LINE
  8
0
 62
     0
 10
62.6251
 20
149.151
 30
0.0
 11
68.2406
 21
150.293
 31
0.0
  0
LINE
  8
0
 62
     0
 10
68.2406
 20
150.293
 30
0.0
 11
74.2403
 21
150.703
 31
0.0
  0
LINE
  8
0
 62
     0
 10
74.2403
 20
150.703
 30
0.0
 11
80.6898
 21
150.274
 31
0.0
  0
LINE
  8
0
 62
     0
 10
80.6898
 20
150.274
 30
0.0
 11
86.7449
 21
149.006
 31
0.0
  0
LINE
  8
0
 62
     0
 10
86.7449
 20
149.006
 30
0.0
 11
92.2528
 21
146.993
 31
0.0
  0
LINE
  8
0
 62
     0
 10
92.2528
 20
146.993
 30
0.0
 11
97.0566
 21
144.321
 31
0.0
  0
LINE
  8
0
 62
     0
 10
97.0566
 20
144.321
 30
0.0
 11
101.001
 21
141.079
 31
0.0
  0
LINE
  8
0
 62
     0
 10
101.001
 20
141.079
 30
0.0
 11
103.933
 21
137.357
 31
0.0
  0
LINE
  8
0
 62
     0
 10
103.933
 20
137.357
 30
0.0
 11
105.695
 21
133.244
 31
0.0
  0
LINE
  8
0
 62
     0
 10
105.695
 20
133.244
 30
0.0
 11
106.135
 21
128.825
 31
0.0
  0
LINE
  8
0
 62
     0
 10
106.135
 20
128.825
 30
0.0
 11
105.351
 21
124.841
 31
0.0
  0
LINE
  8
0
 62
     0
 10
105.351
 20
124.841
 30
0.0
 11
103.537
 21
121.05
 31
0.0
  0
LINE
  8
0
 62
     0
 10
103.537
 20
121.05
 30
0.0
 11
100.772
 21
117.554
 31
0.0
  0
LINE
  8
0
 62
     0
 10
100.772
 20
117.554
 30
0.0
 11
97.1324
 21
114.458
 31
0.0
  0
LINE
  8
0
 62
     0
 10
97.1324
 20
114.458
 30
0.0
 11
92.698
 21
111.868
 31
0.0
  0
LINE
  8
0
 62
     0
 10
92.698
 20
111.868
 30
0.0
 11
87.5496
 21
109.883
 31
0.0
  0
LINE
  8
0
 62
     0
 10
87.5496
 20
109.883
 30
0.0
 11
81.7644
 21
108.611
 31
0.0
  0
LINE
  8
0
 62
     0
 10
81.7644
 20
108.611
 30
0.0
 11
75.4228
 21
108.152
 31
0.0
  0
LINE
  8
0
 62
     0
 10
75.4228
 20
108.152
 30
0.0
 11
68.9585
 21
108.523
 31
0.0
  0
LINE
  8
0
 62
     0
 10
68.9585
 20
108.523
 30
0.0
 11
62.8579
 21
109.631
 31
0.0
  0
LINE
  8
0
 62
     0
 10
62.8579
 20
109.631
 30
0.0
 11
57.2742
 21
111.421
 31
0.0
  0
LINE
  8
0
 62
     0
 10
57.2742
 20
111.421
 30
0.0
 11
52.36
 21
113.837
 31
0.0
  0
LINE
  8
0
 62
     0
 10
52.36
 20
113.837
 30
0.0
 11
48.2685
 21
116.824
 31
0.0
  0
LINE
  8
0
 62
     0
 10
48.2685
 20
116.824
 30
0.0
 11
45.1527
 21
120.328
 31
0.0
  0
LINE
  8
0
 62
     0
 10
45.1527
 20
120.328
 30
0.0
 11
43.1655
 21
124.289
 31
0.0
  0
LINE
  8
0
 62
     0
 10
43.1655
 20
124.289
 30
0.0
 11
42.4628
 21
128.654
 31
0.0
  0
LINE
  8
0
 62
     0
 10
42.4628
 20
128.654
 30
0.0
 11
42.7193
 21
131.497
 31
0.0
  0
LINE
  8
0
 62
     0
 10
42.7193
 20
131.497
 30
0.0
 11
43.4855
 21
134.232
 31
0.0
  0
LINE
  8
0
 62
     0
 10
43.4855
 20
134.232
 30
0.0
 11
28.101
 21
142.354
 31
0.0
  0
LINE
  8
0
 62
     0
 10
28.101
 20
142.354
 30
0.0
 11
4.71565
 21
128.341
 31
0.0
  0
LINE
  8
0
 62
     0
 10
4.71565
 20
128.341
 30
0.0
 11
76.1972
 21
87.8748
 31
0.0
  0
LINE
  8
0
 62
     0
 10
76.1972
 20
87.8748
 30
0.0
 11
75.3166
 21
87.5249
 31
0.0
  0
LINE
  8
0
 62
     0
 10
75.3166
 20
87.5249
 30
0.0
 11
3.44785
 21
125.648
 31
0.0
  0
LINE
  8
0
 62
     0
 10
3.44785
 20
125.648
 30
0.0
 11
3.07716
 21
47.111
 31
0.0
  0
LINE
  8
0
 62
     0
 10
3.07716
 20
47.111
 30
0.0
 11
26.5162
 21
33.7936
 31
0.0
  0
LINE
  8
0
 62
     0
 10
26.5162
 20
33.7936
 30
0.0
 11
26.5479
 21
34.4771
 31
0.0
  0
LINE
  8
0
 62
     0
 10
26.5479
 20
34.4771
 30
0.0
 11
26.6306
 21
36.2839
 31
0.0
  0
LINE
  8
0
 62
     0
 10
26.6306
 20
36.2839
 30
0.0
 11
26.7367
 21
38.8482
 31
0.0
  0
LINE
  8
0
 62
     0
 10
26.7367
 20
38.8482
 30
0.0
 11
26.8428
 21
41.8042
 31
0.0
  0
LINE
  8
0
 62
     0
 10
26.8428
 20
41.8042
 30
0.0
 11
26.9241
 21
44.7876
 31
0.0
  0
LINE
  8
0
 62
     0
 10
26.9241
 20
44.7876
 30
0.0
 11
26.9586
 21
47.432
 31
0.0
  0
LINE
  8
0
 62
     0
 10
26.9586
 20
47.432
 30
0.0
 11
26.9172
 21
49.3723
 31
0.0
  0
LINE
  8
0
 62
     0
 10
26.9172
 20
49.3723
 30
0.0
 11
26.7808
 21
50.2433
 31
0.0
  0
LINE
  8
0
 62
     0
 10
26.7808
 20
50.2433
 30
0.0
 11
23.8442
 21
53.7298
 31
0.0
  0
LINE
  8
0
 62
     0
 10
23.8442
 20
53.7298
 30
0.0
 11
21.2728
 21
57.6763
 31
0.0
  0
LINE
  8
0
 62
     0
 10
21.2728
 20
57.6763
 30
0.0
 11
18.8199
 21
62.9846
 31
0.0
  0
LINE
  8
0
 62
     0
 10
18.8199
 20
62.9846
 30
0.0
 11
17.1194
 21
68.4043
 31
0.0
  0
LINE
  8
0
 62
     0
 10
17.1194
 20
68.4043
 30
0.0
 11
16.2016
 21
73.7761
 31
0.0
  0
LINE
  8
0
 62
     0
 10
16.2016
 20
73.7761
 30
0.0
 11
16.101
 21
78.9397
 31
0.0
  0
LINE
  8
0
 62
     0
 10
16.101
 20
78.9397
 30
0.0
 11
16.852
 21
83.735
 31
0.0
  0
LINE
  8
0
 62
     0
 10
16.852
 20
83.735
 30
0.0
 11
18.4892
 21
88.0029
 31
0.0
  0
LINE
  8
0
 62
     0
 10
18.4892
 20
88.0029
 30
0.0
 11
21.0454
 21
91.5829
 31
0.0
  0
LINE
  8
0
 62
     0
 10
21.0454
 20
91.5829
 30
0.0
 11
24.5539
 21
94.3158
 31
0.0
  0
LINE
  8
0
 62
     0
 10
24.5539
 20
94.3158
 30
0.0
 11
28.7638
 21
95.9252
 31
0.0
  0
LINE
  8
0
 62
     0
 10
28.7638
 20
95.9252
 30
0.0
 11
33.3072
 21
96.2889
 31
0.0
  0
LINE
  8
0
 62
     0
 10
33.3072
 20
96.2889
 30
0.0
 11
38.0436
 21
95.4938
 31
0.0
  0
LINE
  8
0
 62
     0
 10
38.0436
 20
95.4938
 30
0.0
 11
42.8308
 21
93.6226
 31
0.0
  0
LINE
  8
0
 62
     0
 10
42.8308
 20
93.6226
 30
0.0
 11
47.5273
 21
90.763
 31
0.0
  0
LINE
  8
0
 62
     0
 10
47.5273
 20
90.763
 30
0.0
 11
51.992
 21
86.9982
 31
0.0
  0
LINE
  8
0
 62
     0
 10
51.992
 20
86.9982
 30
0.0
 11
56.0836
 21
82.4135
 31
0.0
  0
LINE
  8
0
 62
     0
 10
56.0836
 20
82.4135
 30
0.0
 11
59.6607
 21
77.0915
 31
0.0
  0
LINE
  8
0
 62
     0
 10
59.6607
 20
77.0915
 30
0.0
 11
62.4057
 21
71.3535
 31
0.0
  0
LINE
  8
0
 62
     0
 10
62.4057
 20
71.3535
 30
0.0
 11
64.1244
 21
65.5588
 31
0.0
  0
LINE
  8
0
 62
     0
 10
64.1244
 20
65.5588
 30
0.0
 11
64.8561
 21
59.8674
 31
0.0
  0
LINE
  8
0
 62
     0
 10
64.8561
 20
59.8674
 30
0.0
 11
64.6384
 21
54.4407
 31
0.0
  0
LINE
  8
0
 62
     0
 10
64.6384
 20
54.4407
 30
0.0
 11
63.5123
 21
49.44
 31
0.0
  0
LINE
  8
0
 62
     0
 10
63.5123
 20
49.44
 30
0.0
 11
61.5184
 21
45.0219
 31
0.0
  0
LINE
  8
0
 62
     0
 10
61.5184
 20
45.0219
 30
0.0
 11
58.6934
 21
41.3508
 31
0.0
  0
LINE
  8
0
 62
     0
 10
58.6934
 20
41.3508
 30
0.0
 11
55.0803
 21
38.5851
 31
0.0
  0
LINE
  8
0
 62
     0
 10
55.0803
 20
38.5851
 30
0.0
 11
54.9314
 21
37.6107
 31
0.0
  0
LINE
  8
0
 62
     0
 10
54.9314
 20
37.6107
 30
0.0
 11
54.8665
 21
35.2227
 31
0.0
  0
LINE
  8
0
 62
     0
 10
54.8665
 20
35.2227
 30
0.0
 11
54.8651
 21
31.8988
 31
0.0
  0
LINE
  8
0
 62
     0
 10
54.8651
 20
31.8988
 30
0.0
 11
54.9092
 21
28.1134
 31
0.0
  0
LINE
  8
0
 62
     0
 10
54.9092
 20
28.1134
 30
0.0
 11
54.9783
 21
24.3417
 31
0.0
  0
LINE
  8
0
 62
     0
 10
54.9783
 20
24.3417
 30
0.0
 11
55.0513
 21
21.0592
 31
0.0
  0
LINE
  8
0
 62
     0
 10
55.0513
 20
21.0592
 30
0.0
 11
55.1092
 21
18.7413
 31
0.0
  0
LINE
  8
0
 62
     0
 10
55.1092
 20
18.7413
 30
0.0
 11
55.1339
 21
17.8621
 31
0.0
  0
LINE
  8
0
 62
     0
 10
55.1339
 20
17.8621
 30
0.0
 11
78.5827
 21
4.50204
 31
0.0
  0
LINE
  8
0
 62
     0
 10
78.5827
 20
4.50204
 30
0.0
 11
78.631
 21
4.49654
 31
0.0
  0
LINE
  8
0
 62
     0
 10
78.631
 20
4.49654
 30
0.0
 11
77.501
 21
87.5344
 31
0.0
  0
LINE
  8
0
 62
     0
 10
77.501
 20
87.5344
 30
0.0
 11
148.118
 21
128.3
 31
0.0
  0
LINE
  8
0
 62
     0
 10
148.118
 20
128.3
 30
0.0
 11
74.4844
 21
169.693
 31
0.0
  0
LINE
  8
0
 62
     0
 10
25.2484
 20
92.7146
 30
0.0
 11
22.2608
 21
90.1499
 31
0.0
  0
LINE
  8
0
 62
     0
 10
22.2608
 20
90.1499
 30
0.0
 11
20.1524
 21
86.9379
 31
0.0
  0
LINE
  8
0
 62
     0
 10
20.1524
 20
86.9379
 30
0.0
 11
18.8874
 21
83.1963
 31
0.0
  0
LINE
  8
0
 62
     0
 10
18.8874
 20
83.1963
 30
0.0
 11
18.4271
 21
79.0388
 31
0.0
  0
LINE
  8
0
 62
     0
 10
18.4271
 20
79.0388
 30
0.0
 11
18.7358
 21
74.585
 31
0.0
  0
LINE
  8
0
 62
     0
 10
18.7358
 20
74.585
 30
0.0
 11
19.7776
 21
69.9477
 31
0.0
  0
LINE
  8
0
 62
     0
 10
19.7776
 20
69.9477
 30
0.0
 11
21.5153
 21
65.2445
 31
0.0
  0
LINE
  8
0
 62
     0
 10
21.5153
 20
65.2445
 30
0.0
 11
23.9131
 21
60.5924
 31
0.0
  0
LINE
  8
0
 62
     0
 10
23.9131
 20
60.5924
 30
0.0
 11
25.9374
 21
57.5772
 31
0.0
  0
LINE
  8
0
 62
     0
 10
25.9374
 20
57.5772
 30
0.0
 11
28.1699
 21
54.4326
 31
0.0
  0
LINE
  8
0
 62
     0
 10
28.1699
 20
54.4326
 30
0.0
 11
60.223
 21
72.6324
 31
0.0
  0
LINE
  8
0
 62
     0
 10
60.223
 20
72.6324
 30
0.0
 11
59.5947
 21
74.5712
 31
0.0
  0
LINE
  8
0
 62
     0
 10
59.5947
 20
74.5712
 30
0.0
 11
58.9153
 21
75.8762
 31
0.0
  0
LINE
  8
0
 62
     0
 10
58.9153
 20
75.8762
 30
0.0
 11
58.0983
 21
77.046
 31
0.0
  0
LINE
  8
0
 62
     0
 10
58.0983
 20
77.046
 30
0.0
 11
57.0523
 21
78.5813
 31
0.0
  0
LINE
  8
0
 62
     0
 10
57.0523
 20
78.5813
 30
0.0
 11
53.6593
 21
83.2446
 31
0.0
  0
LINE
  8
0
 62
     0
 10
53.6593
 20
83.2446
 30
0.0
 11
49.8436
 21
87.2215
 31
0.0
  0
LINE
  8
0
 62
     0
 10
49.8436
 20
87.2215
 30
0.0
 11
45.7316
 21
90.442
 31
0.0
  0
LINE
  8
0
 62
     0
 10
45.7316
 20
90.442
 30
0.0
 11
41.4528
 21
92.8356
 31
0.0
  0
LINE
  8
0
 62
     0
 10
41.4528
 20
92.8356
 30
0.0
 11
37.1355
 21
94.331
 31
0.0
  0
LINE
  8
0
 62
     0
 10
37.1355
 20
94.331
 30
0.0
 11
32.9103
 21
94.8559
 31
0.0
  0
LINE
  8
0
 62
     0
 10
32.9103
 20
94.8559
 30
0.0
 11
28.9044
 21
94.3405
 31
0.0
  0
LINE
  8
0
 62
     0
 10
28.9044
 20
94.3405
 30
0.0
 11
25.2484
 21
92.7146
 31
0.0
  0
LINE
  8
0
 62
     0
 10
104.904
 20
127.646
 30
0.0
 11
104.49
 21
131.571
 31
0.0
  0
LINE
  8
0
 62
     0
 10
104.49
 20
131.571
 30
0.0
 11
102.828
 21
135.141
 31
0.0
  0
LINE
  8
0
 62
     0
 10
102.828
 20
135.141
 30
0.0
 11
100.064
 21
138.304
 31
0.0
  0
LINE
  8
0
 62
     0
 10
100.064
 20
138.304
 30
0.0
 11
96.3443
 21
141.008
 31
0.0
  0
LINE
  8
0
 62
     0
 10
96.3443
 20
141.008
 30
0.0
 11
91.8161
 21
143.2
 31
0.0
  0
LINE
  8
0
 62
     0
 10
91.8161
 20
143.2
 30
0.0
 11
86.6249
 21
144.825
 31
0.0
  0
LINE
  8
0
 62
     0
 10
86.6249
 20
144.825
 30
0.0
 11
80.917
 21
145.834
 31
0.0
  0
LINE
  8
0
 62
     0
 10
80.917
 20
145.834
 30
0.0
 11
74.84
 21
146.17
 31
0.0
  0
LINE
  8
0
 62
     0
 10
74.84
 20
146.17
 30
0.0
 11
69.6172
 21
145.853
 31
0.0
  0
LINE
  8
0
 62
     0
 10
69.6172
 20
145.853
 30
0.0
 11
64.692
 21
144.961
 31
0.0
  0
LINE
  8
0
 62
     0
 10
64.692
 20
144.961
 30
0.0
 11
64.6712
 21
110.273
 31
0.0
  0
LINE
  8
0
 62
     0
 10
64.6712
 20
110.273
 30
0.0
 11
70.1587
 21
109.369
 31
0.0
  0
LINE
  8
0
 62
     0
 10
70.1587
 20
109.369
 30
0.0
 11
75.9534
 21
109.065
 31
0.0
  0
LINE
  8
0
 62
     0
 10
75.9534
 20
109.065
 30
0.0
 11
81.9312
 21
109.478
 31
0.0
  0
LINE
  8
0
 62
     0
 10
81.9312
 20
109.478
 30
0.0
 11
87.3855
 21
110.623
 31
0.0
  0
LINE
  8
0
 62
     0
 10
87.3855
 20
110.623
 30
0.0
 11
92.239
 21
112.407
 31
0.0
  0
LINE
  8
0
 62
     0
 10
92.239
 20
112.407
 30
0.0
 11
96.4187
 21
114.737
 31
0.0
  0
LINE
  8
0
 62
     0
 10
96.4187
 20
114.737
 30
0.0
 11
99.8499
 21
117.518
 31
0.0
  0
LINE
  8
0
 62
     0
 10
99.8499
 20
117.518
 30
0.0
 11
102.457
 21
120.66
 31
0.0
  0
LINE
  8
0
 62
     0
 10
102.457
 20
120.66
 30
0.0
 11
104.166
 21
124.066
 31
0.0
  0
LINE
  8
0
 62
     0
 10
104.166
 20
124.066
 30
0.0
 11
104.904
 21
127.646
 31
0.0
  0
LINE
  8
0
 62
     0
 10
103.564
 20
38.5163
 30
0.0
 11
103.612
 21
38.5272
 31
0.0
  0
LINE
  8
0
 62
     0
 10
103.612
 20
38.5272
 30
0.0
 11
101.304
 21
38.8454
 31
0.0
  0
LINE
  8
0
 62
     0
 10
101.304
 20
38.8454
 30
0.0
 11
99.1002
 21
39.5139
 31
0.0
  0
LINE
  8
0
 62
     0
 10
99.1002
 20
39.5139
 30
0.0
 11
96.2561
 21
41.0312
 31
0.0
  0
LINE
  8
0
 62
     0
 10
96.2561
 20
41.0312
 30
0.0
 11
93.7976
 21
43.156
 31
0.0
  0
LINE
  8
0
 62
     0
 10
93.7976
 20
43.156
 30
0.0
 11
95.6702
 21
41.1357
 31
0.0
  0
LINE
  8
0
 62
     0
 10
95.6702
 20
41.1357
 30
0.0
 11
97.9181
 21
39.4878
 31
0.0
  0
LINE
  8
0
 62
     0
 10
97.9181
 20
39.4878
 30
0.0
 11
102.107
 21
37.7832
 31
0.0
  0
LINE
  8
0
 62
     0
 10
102.107
 20
37.7832
 30
0.0
 11
106.644
 21
37.2759
 31
0.0
  0
LINE
  8
0
 62
     0
 10
106.644
 20
37.2759
 30
0.0
 11
111.384
 21
37.9028
 31
0.0
  0
LINE
  8
0
 62
     0
 10
111.384
 20
37.9028
 30
0.0
 11
116.187
 21
39.5951
 31
0.0
  0
LINE
  8
0
 62
     0
 10
116.187
 20
39.5951
 30
0.0
 11
120.908
 21
42.2906
 31
0.0
  0
LINE
  8
0
 62
     0
 10
120.908
 20
42.2906
 30
0.0
 11
125.408
 21
45.9232
 31
0.0
  0
LINE
  8
0
 62
     0
 10
125.408
 20
45.9232
 30
0.0
 11
129.545
 21
50.4239
 31
0.0
  0
LINE
  8
0
 62
     0
 10
129.545
 20
50.4239
 30
0.0
 11
133.178
 21
55.7308
 31
0.0
  0
LINE
  8
0
 62
     0
 10
133.178
 20
55.7308
 30
0.0
 11
135.865
 21
60.5
 31
0.0
  0
LINE
  8
0
 62
     0
 10
135.865
 20
60.5
 30
0.0
 11
137.727
 21
65.3161
 31
0.0
  0
LINE
  8
0
 62
     0
 10
137.727
 20
65.3161
 30
0.0
 11
150.446
 21
71.3341
 31
0.0
  0
LINE
  8
0
 62
     0
 10
150.446
 20
71.3341
 30
0.0
 11
150.483
 21
72.7385
 31
0.0
  0
LINE
  8
0
 62
     0
 10
150.483
 20
72.7385
 30
0.0
 11
136.285
 21
66.748
 31
0.0
  0
LINE
  8
0
 62
     0
 10
136.285
 20
66.748
 30
0.0
 11
134.426
 21
61.6906
 31
0.0
  0
LINE
  8
0
 62
     0
 10
134.426
 20
61.6906
 30
0.0
 11
131.736
 21
56.6801
 31
0.0
  0
LINE
  8
0
 62
     0
 10
131.736
 20
56.6801
 30
0.0
 11
128.898
 21
52.451
 31
0.0
  0
LINE
  8
0
 62
     0
 10
128.898
 20
52.451
 30
0.0
 11
125.721
 21
48.7179
 31
0.0
  0
LINE
  8
0
 62
     0
 10
125.721
 20
48.7179
 30
0.0
 11
122.28
 21
45.5126
 31
0.0
  0
LINE
  8
0
 62
     0
 10
122.28
 20
45.5126
 30
0.0
 11
118.644
 21
42.8681
 31
0.0
  0
LINE
  8
0
 62
     0
 10
118.644
 20
42.8681
 30
0.0
 11
114.881
 21
40.8132
 31
0.0
  0
LINE
  8
0
 62
     0
 10
114.881
 20
40.8132
 30
0.0
 11
111.067
 21
39.3831
 31
0.0
  0
LINE
  8
0
 62
     0
 10
111.067
 20
39.3831
 30
0.0
 11
107.271
 21
38.6073
 31
0.0
  0
LINE
  8
0
 62
     0
 10
107.271
 20
38.6073
 30
0.0
 11
103.564
 21
38.5177
 31
0.0
  0
LINE
  8
0
 62
     0
 10
103.564
 20
38.5177
 30
0.0
 11
103.564
 21
38.5163
 31
0.0
  0
ENDSEC
  0
EOF
