<?xml version="1.0" standalone="no"?>
<!DOCTYPE svg PUBLIC "-//W3C//DTD SVG 1.1//EN" "http://www.w3.org/Graphics/SVG/1.1/DTD/svg11.dtd">
<svg width="85" height="55" viewBox="0 -55 85 55" xmlns="http://www.w3.org/2000/svg" version="1.1">
<title>OpenSCAD Model</title>
<path d="
M 80.9079,-0.632568 L 82.584,-1.70975 L 83.8888,-3.2155 L 84.7164,-5.02786 L 85,-7 L 85,-48
 L 84.7164,-49.9721 L 83.8888,-51.7845 L 82.584,-53.2902 L 80.9079,-54.3674 L 78.9962,-54.9287 L 6.00378,-54.9287
 L 4.09209,-54.3674 L 2.41597,-53.2902 L 1.11122,-51.7845 L 0.283539,-49.9721 L 0,-48 L 0,-7
 L 0.283539,-5.02786 L 1.11122,-3.2155 L 2.41597,-1.70975 L 4.09209,-0.632568 L 6.00378,-0.0712433 L 78.9962,-0.0712433
 z
M 25.1326,-41 L 25.1326,-50.92 L 27.7106,-50.92 L 30.4266,-45.02 L 33.1416,-50.92 L 35.6286,-50.92
 L 35.6286,-41 L 33.8366,-41 L 33.8366,-48.536 L 31.0166,-42.081 L 29.8366,-42.081 L 26.9246,-48.75
 L 26.9246,-41 z
M 75.1131,-41 L 75.1131,-48.434 L 76.7041,-48.434 L 76.9051,-47.149 L 77.3275,-47.7982 L 77.8606,-48.262
 L 78.5045,-48.5402 L 79.2591,-48.633 L 79.9041,-48.5766 L 80.4641,-48.4072 L 80.9391,-48.1251 L 81.3291,-47.73
 L 81.6336,-47.2426 L 81.8511,-46.6825 L 81.9816,-46.0496 L 82.0251,-45.344 L 82.0251,-41 L 80.2331,-41
 L 80.2331,-45.344 L 80.2079,-45.7316 L 80.1323,-46.0685 L 80.0064,-46.3546 L 79.8301,-46.59 L 79.6087,-46.7742
 L 79.3466,-46.9057 L 79.0437,-46.9847 L 78.7001,-47.011 L 78.3496,-46.9708 L 78.0251,-46.8502 L 77.7266,-46.6493
 L 77.4541,-46.368 L 77.2255,-46.0069 L 77.0578,-45.5655 L 76.951,-45.0439 L 76.9051,-44.442 L 76.9051,-41
 z
M 39.9268,-40.838 L 39.3282,-40.9698 L 38.8098,-41.1894 L 38.3717,-41.497 L 38.0505,-41.8559 L 37.8212,-42.2597
 L 37.6835,-42.7084 L 37.6376,-43.202 L 37.6883,-43.6888 L 37.8404,-44.1162 L 38.0938,-44.4843 L 38.4487,-44.793
 L 38.8914,-45.0376 L 39.4087,-45.2122 L 40.0004,-45.3171 L 40.6667,-45.352 L 40.9973,-45.3426 L 41.3472,-45.3142
 L 41.7163,-45.2671 L 42.1047,-45.201 L 42.1047,-44.072 L 41.8255,-44.128 L 41.5539,-44.168 L 41.29,-44.192
 L 41.0337,-44.2 L 40.3914,-44.1388 L 39.9327,-43.9552 L 39.6574,-43.6493 L 39.5657,-43.221 L 39.5867,-43.0216
 L 39.6497,-42.8365 L 39.7547,-42.6656 L 39.9017,-42.509 L 40.0954,-42.3786 L 40.3397,-42.2855 L 40.6344,-42.2296
 L 40.9797,-42.211 L 41.3344,-42.2421 L 41.6567,-42.3352 L 41.9464,-42.4906 L 42.2037,-42.708 L 42.4165,-42.9727
 L 42.5729,-43.2687 L 42.673,-43.5962 L 42.7167,-43.955 L 42.7167,-45.761 L 42.697,-46.1169 L 42.6382,-46.4245
 L 42.54,-46.6839 L 42.4026,-46.895 L 42.2208,-47.0591 L 41.9894,-47.1762 L 41.7083,-47.2466 L 41.3777,-47.27
 L 41.0427,-47.2523 L 40.7487,-47.1992 L 40.4957,-47.1108 L 40.2837,-46.987 L 40.1165,-46.8307 L 39.9972,-46.6447
 L 39.9255,-46.4292 L 39.9017,-46.184 L 37.9286,-46.184 L 37.9846,-46.7824 L 38.1524,-47.2917 L 38.4321,-47.7119
 L 38.8237,-48.043 L 39.3156,-48.2937 L 39.8964,-48.4727 L 40.5661,-48.5802 L 41.3247,-48.616 L 42.3674,-48.5164
 L 43.2077,-48.2175 L 43.8454,-47.7194 L 44.2807,-47.022 L 44.3804,-46.7362 L 44.4517,-46.426 L 44.4944,-46.0912
 L 44.5087,-45.732 L 44.5087,-41.008 L 42.9197,-41.008 L 42.7807,-42.002 L 42.3852,-41.4735 L 41.8909,-41.096
 L 41.2977,-40.8695 L 40.6057,-40.794 z
M 69.9328,-42.397 L 70.2091,-42.4762 L 70.472,-42.607 L 70.7216,-42.7892 L 70.9577,-43.023 L 71.1586,-43.324
 L 71.302,-43.707 L 71.3881,-44.172 L 71.4167,-44.719 L 71.3904,-45.2678 L 71.3115,-45.7372 L 71.1799,-46.1273
 L 70.9957,-46.438 L 70.7714,-46.6803 L 70.5195,-46.8642 L 70.2399,-46.9898 L 69.9328,-47.057 L 69.9328,-48.616
 L 70.2217,-48.5891 L 70.5115,-48.5392 L 70.8022,-48.4666 L 71.0938,-48.371 L 71.3791,-48.2472 L 71.65,-48.089
 L 71.9066,-47.8962 L 72.1487,-47.669 L 72.6073,-47.0824 L 72.9348,-46.3927 L 73.1313,-45.5999 L 73.1967,-44.704
 L 73.1313,-43.8217 L 72.9348,-43.0387 L 72.6073,-42.3552 L 72.1487,-41.771 L 71.6915,-41.3782 L 71.1698,-41.0867
 L 70.5835,-40.8967 L 69.9328,-40.808 z
M 68.6311,-40.9027 L 68.033,-41.0947 L 67.4986,-41.3842 L 67.0278,-41.771 L 66.5627,-42.3495 L 66.2305,-43.0312
 L 66.0312,-43.8161 L 65.9648,-44.704 L 66.0312,-45.6056 L 66.2305,-46.4002 L 66.5627,-47.0881 L 67.0278,-47.669
 L 67.4929,-48.0488 L 68.0255,-48.3332 L 68.6254,-48.5223 L 69.2928,-48.616 L 69.2928,-47.073 L 69.066,-47.0362
 L 68.8297,-46.9257 L 68.584,-46.7417 L 68.3288,-46.484 L 68.1013,-46.1532 L 67.9388,-45.7487 L 67.8412,-45.2707
 L 67.8087,-44.719 L 67.8355,-44.1705 L 67.9158,-43.7012 L 68.0495,-43.3111 L 68.2368,-43 L 68.4636,-42.7581
 L 68.7153,-42.5745 L 68.9916,-42.4491 L 69.2928,-42.382 L 69.2928,-40.808 z
M 60.4696,-41 L 57.7016,-48.424 L 59.7816,-48.424 L 61.4796,-42.787 L 63.1926,-48.424 L 65.2726,-48.424
 L 62.5036,-41 z
M 45.7225,-41 L 48.6135,-44.689 L 45.7225,-48.424 L 47.9406,-48.424 L 49.7605,-46.046 L 51.4885,-48.424
 L 53.6915,-48.424 L 50.8156,-44.689 L 53.6915,-41 L 51.4885,-41 L 49.6535,-43.378 L 47.9406,-41
 z
M 38.9078,-27.8758 L 38.2823,-28.079 L 37.7143,-28.4177 L 37.2036,-28.892 L 36.7687,-29.4952 L 36.4581,-30.1747
 L 36.2717,-30.9307 L 36.2096,-31.763 L 36.2688,-32.5925 L 36.4466,-33.34 L 36.7428,-34.0055 L 37.1576,-34.589
 L 37.6369,-35.051 L 38.1408,-35.381 L 38.6694,-35.579 L 39.2226,-35.645 L 39.7561,-35.6172 L 40.2246,-35.534
 L 40.6281,-35.3952 L 40.9666,-35.201 L 40.9666,-33.641 L 40.7268,-33.8081 L 40.4506,-33.9275 L 40.1378,-33.9991
 L 39.7886,-34.023 L 39.4354,-33.9845 L 39.1098,-33.869 L 38.8119,-33.6765 L 38.5416,-33.407 L 38.3176,-33.0735
 L 38.1576,-32.688 L 38.0616,-32.2505 L 38.0296,-31.761 L 38.0621,-31.2706 L 38.1596,-30.8305 L 38.3221,-30.4406
 L 38.5496,-30.101 L 38.8268,-29.8258 L 39.1386,-29.6292 L 39.4848,-29.5113 L 39.8656,-29.472 L 40.186,-29.5043
 L 40.4891,-29.6012 L 40.7749,-29.7628 L 41.0436,-29.989 L 41.2776,-30.2726 L 41.4448,-30.5905 L 41.5451,-30.9426
 L 41.5786,-31.329 L 41.5786,-38.496 L 43.3706,-38.496 L 43.3706,-28 L 41.9096,-28 L 41.6986,-29.192
 L 41.3096,-28.5865 L 40.8286,-28.154 L 40.2556,-27.8945 L 39.5906,-27.808 z
M 60.118,-28 L 60.118,-38.496 L 61.91,-38.496 L 61.91,-28 z
M 13.0603,-28 L 13.0603,-37.92 L 14.8524,-37.92 L 14.8524,-33.76 L 16.9794,-33.76 L 17.3595,-33.7819
 L 17.6901,-33.8477 L 17.971,-33.9574 L 18.2023,-34.111 L 18.383,-34.3022 L 18.5121,-34.5247 L 18.5895,-34.7787
 L 18.6154,-35.064 L 18.59,-35.3502 L 18.5141,-35.6057 L 18.3875,-35.8307 L 18.2104,-36.025 L 17.9825,-36.1821
 L 17.7039,-36.2942 L 17.3745,-36.3616 L 16.9944,-36.384 L 15.5103,-36.384 L 15.5103,-37.92 L 17.0554,-37.92
 L 17.8345,-37.8714 L 18.5201,-37.7257 L 19.112,-37.4829 L 19.6104,-37.143 L 19.9848,-36.7593 L 20.2523,-36.3242
 L 20.4129,-35.8378 L 20.4664,-35.3 L 20.4372,-34.8962 L 20.3496,-34.523 L 20.2037,-34.1802 L 19.9993,-33.868
 L 19.7429,-33.5929 L 19.4396,-33.3615 L 19.0894,-33.1739 L 18.6924,-33.03 L 19.0947,-32.9191 L 19.4606,-32.7555
 L 19.7902,-32.5391 L 20.0834,-32.27 L 20.3244,-31.9544 L 20.4966,-31.5975 L 20.5999,-31.1994 L 20.6344,-30.76
 L 20.5206,-29.9128 L 20.1794,-29.2112 L 19.6106,-28.6553 L 18.8143,-28.245 L 18.4474,-28.1378 L 18.0343,-28.0612
 L 17.5753,-28.0153 L 17.0704,-28 L 15.5414,-28 L 15.5414,-29.6 L 17.0244,-29.6 L 17.4302,-29.6217
 L 17.7758,-29.687 L 18.0612,-29.7957 L 18.2863,-29.948 L 18.457,-30.1366 L 18.5789,-30.3535 L 18.652,-30.5986
 L 18.6763,-30.872 L 18.651,-31.1462 L 18.5751,-31.393 L 18.4485,-31.6122 L 18.2713,-31.804 L 18.0415,-31.9597
 L 17.7571,-32.071 L 17.418,-32.1377 L 17.0244,-32.16 L 14.8524,-32.16 L 14.8683,-28 z
M 66.6164,-27.9027 L 66.0184,-28.0947 L 65.4839,-28.3842 L 65.0131,-28.771 L 64.548,-29.3495 L 64.2159,-30.0312
 L 64.0165,-30.8161 L 63.9501,-31.704 L 64.0165,-32.6056 L 64.2159,-33.4002 L 64.548,-34.0881 L 65.0131,-34.669
 L 65.4783,-35.0488 L 66.0108,-35.3332 L 66.6108,-35.5223 L 67.2781,-35.616 L 67.2781,-34.073 L 67.0513,-34.0362
 L 66.8151,-33.9257 L 66.5694,-33.7417 L 66.3141,-33.484 L 66.0866,-33.1532 L 65.9241,-32.7487 L 65.8266,-32.2707
 L 65.7941,-31.719 L 65.8208,-31.1705 L 65.9011,-30.7012 L 66.0349,-30.3111 L 66.2221,-30 L 66.449,-29.7581
 L 66.7006,-29.5745 L 66.977,-29.4491 L 67.2781,-29.382 L 67.2781,-27.808 z
M 31.0159,-27.8746 L 30.3706,-28.0742 L 29.7844,-28.4071 L 29.2574,-28.873 L 28.8085,-29.4676 L 28.4879,-30.1402
 L 28.2955,-30.8911 L 28.2314,-31.72 L 28.2955,-32.5663 L 28.4879,-33.3252 L 28.8085,-33.9968 L 29.2574,-34.581
 L 29.7788,-35.0338 L 30.3631,-35.3572 L 31.0103,-35.5513 L 31.7204,-35.616 L 32.4498,-35.5485 L 33.0934,-35.346
 L 33.6508,-35.0085 L 34.1223,-34.536 L 34.3014,-34.2829 L 34.4566,-34.0107 L 34.5879,-33.7194 L 34.6954,-33.409
 L 34.7794,-33.0961 L 34.8394,-32.7965 L 34.8754,-32.5101 L 34.8873,-32.237 L 34.8835,-31.9776 L 34.8719,-31.7315
 L 34.8525,-31.4986 L 34.8253,-31.279 L 30.6344,-31.264 L 30.6344,-32.416 L 33.2043,-32.416 L 33.1565,-32.9759
 L 33.0131,-33.4355 L 32.774,-33.7949 L 32.4393,-34.054 L 32.2867,-34.1214 L 32.1186,-34.1695 L 31.9352,-34.1984
 L 31.7364,-34.208 L 31.3683,-34.177 L 31.0441,-34.0842 L 30.7638,-33.9296 L 30.5273,-33.713 L 30.3354,-33.4484
 L 30.1873,-33.1487 L 30.0834,-32.8139 L 30.0233,-32.444 L 30.0233,-31.303 L 30.0623,-30.8754 L 30.1491,-30.4895
 L 30.2838,-30.1454 L 30.4664,-29.843 L 30.6996,-29.5967 L 30.9864,-29.4207 L 31.3266,-29.3152 L 31.7204,-29.28
 L 32.2224,-29.34 L 32.6116,-29.52 L 32.8879,-29.82 L 33.0513,-30.24 L 34.8714,-30.24 L 34.7387,-29.7112
 L 34.5238,-29.2417 L 34.2267,-28.8317 L 33.8474,-28.481 L 33.3874,-28.1866 L 32.8796,-27.9763 L 32.3239,-27.8501
 L 31.7204,-27.808 z
M 67.9181,-29.397 L 68.1944,-29.4762 L 68.4574,-29.607 L 68.7069,-29.7892 L 68.9431,-30.023 L 69.1439,-30.324
 L 69.2874,-30.707 L 69.3734,-31.172 L 69.4021,-31.719 L 69.3758,-32.2678 L 69.2968,-32.7372 L 69.1653,-33.1273
 L 68.9811,-33.438 L 68.7568,-33.6803 L 68.5049,-33.8642 L 68.2253,-33.9898 L 67.9181,-34.057 L 67.9181,-35.616
 L 68.207,-35.5891 L 68.4969,-35.5392 L 68.7875,-35.4666 L 69.0791,-35.371 L 69.3644,-35.2472 L 69.6353,-35.089
 L 69.8919,-34.8962 L 70.1341,-34.669 L 70.5926,-34.0824 L 70.9201,-33.3927 L 71.1166,-32.5999 L 71.1821,-31.704
 L 71.1166,-30.8217 L 70.9201,-30.0387 L 70.5926,-29.3552 L 70.1341,-28.771 L 69.6768,-28.3782 L 69.1551,-28.0867
 L 68.5688,-27.8967 L 67.9181,-27.808 z
M 48.0843,-27.8746 L 47.439,-28.0742 L 46.8528,-28.4071 L 46.3257,-28.873 L 45.8768,-29.4676 L 45.5562,-30.1402
 L 45.3638,-30.8911 L 45.2997,-31.72 L 45.3638,-32.5663 L 45.5562,-33.3252 L 45.8768,-33.9968 L 46.3257,-34.581
 L 46.8472,-35.0338 L 47.4315,-35.3572 L 48.0786,-35.5513 L 48.7887,-35.616 L 49.5182,-35.5485 L 50.1617,-35.346
 L 50.7192,-35.0085 L 51.1907,-34.536 L 51.3698,-34.2829 L 51.525,-34.0107 L 51.6563,-33.7194 L 51.7637,-33.409
 L 51.8477,-33.0961 L 51.9077,-32.7965 L 51.9437,-32.5101 L 51.9557,-32.237 L 51.9518,-31.9776 L 51.9402,-31.7315
 L 51.9208,-31.4986 L 51.8937,-31.279 L 47.7027,-31.264 L 47.7027,-32.416 L 50.2727,-32.416 L 50.2249,-32.9759
 L 50.0815,-33.4355 L 49.8424,-33.7949 L 49.5077,-34.054 L 49.355,-34.1214 L 49.187,-34.1695 L 49.0035,-34.1984
 L 48.8047,-34.208 L 48.4366,-34.177 L 48.1125,-34.0842 L 47.8322,-33.9296 L 47.5957,-33.713 L 47.4037,-33.4484
 L 47.2557,-33.1487 L 47.1517,-32.8139 L 47.0917,-32.444 L 47.0917,-31.303 L 47.1306,-30.8754 L 47.2175,-30.4895
 L 47.3521,-30.1454 L 47.5347,-29.843 L 47.768,-29.5967 L 48.0547,-29.4207 L 48.395,-29.3152 L 48.7887,-29.28
 L 49.2908,-29.34 L 49.68,-29.52 L 49.9563,-29.82 L 50.1197,-30.24 L 51.9397,-30.24 L 51.8071,-29.7112
 L 51.5922,-29.2417 L 51.2951,-28.8317 L 50.9157,-28.481 L 50.4558,-28.1866 L 49.948,-27.9763 L 49.3923,-27.8501
 L 48.7887,-27.808 z
M 22.7283,-28 L 22.7283,-35.424 L 24.5203,-35.424 L 24.5203,-33.971 L 24.8989,-34.6627 L 25.3618,-35.1567
 L 25.909,-35.4532 L 26.5403,-35.552 L 26.6789,-35.548 L 26.8346,-35.536 L 27.0074,-35.516 L 27.1973,-35.488
 L 27.1673,-33.669 L 26.9538,-33.7088 L 26.7423,-33.7372 L 26.5328,-33.7543 L 26.3253,-33.76 L 25.5356,-33.6039
 L 24.9716,-33.1357 L 24.6331,-32.3554 L 24.5203,-31.263 L 24.5203,-28 z
M 53.9109,-28 L 53.9109,-35.424 L 55.7029,-35.424 L 55.7029,-33.971 L 56.0816,-34.6627 L 56.5444,-35.1567
 L 57.0916,-35.4532 L 57.7229,-35.552 L 57.8615,-35.548 L 58.0172,-35.536 L 58.19,-35.516 L 58.3799,-35.488
 L 58.3499,-33.669 L 58.1364,-33.7088 L 57.9249,-33.7372 L 57.7154,-33.7543 L 57.5079,-33.76 L 56.7182,-33.6039
 L 56.1542,-33.1357 L 55.8158,-32.3554 L 55.7029,-31.263 L 55.7029,-28 z
M 74.3364,-28 L 71.8744,-35.424 L 73.7704,-35.424 L 75.2694,-30.123 L 76.6924,-35.018 L 78.3284,-35.018
 L 79.7514,-30.108 L 81.2654,-35.424 L 83.0704,-35.424 L 80.6234,-28 L 78.8494,-28 L 77.4724,-32.445
 L 76.1264,-28 z
M 7.15009,-11.5762 L 7.12646,-12.5365 L 7.12021,-12.9061 L 7.11845,-13.2001 L 7.12109,-13.4349 L 7.1292,-13.6147
 L 7.14287,-13.7481 L 7.16278,-13.8436 L 7.18915,-13.9098 L 7.22235,-13.9551 L 7.26299,-13.9881 L 7.31142,-14.0171
 L 7.55966,-14.2021 L 7.7664,-14.4454 L 7.9286,-14.7398 L 8.04404,-15.0785 L 7.87061,-14.9674 L 7.43144,-14.6941
 L 6.63135,-14.2082 L 5.55067,-13.5619 L 4.67383,-13.0405 L 4.64258,-13.0329 L 4.55693,-13.0617 L 4.4247,-13.122
 L 4.2536,-13.2088 L 4.05145,-13.3169 L 3.82607,-13.4418 L 3.33652,-13.7212 L 2.62236,-14.141 L 2.00497,-14.5117
 L 2.04688,-22.9465 L 4.76562,-24.6097 L 6.47646,-23.6724 L 6.4662,-23.2985 L 6.46523,-23.0018 L 6.46982,-22.7732
 L 6.47646,-22.6024 L 6.48798,-22.5593 L 6.51649,-22.5013 L 6.55731,-22.434 L 6.60527,-22.3627 L 6.65585,-22.2928
 L 6.74481,-22.1788 L 6.77382,-22.1455 L 6.77899,-22.4142 L 6.78964,-22.8042 L 6.79433,-23.3322 L 6.79364,-23.8875
 L 6.783,-25.1457 L 6.77646,-25.7029 L 9.4118,-27.3182 L 17.0578,-23.0266 L 16.938,-19.8064 L 15.2245,-18.7232
 L 15.0654,-18.8228 L 14.8939,-18.9246 L 14.6853,-19.041 L 14.458,-19.1573 L 14.2301,-19.2583 L 14.0197,-19.3292
 L 13.8451,-19.3547 L 13.6458,-19.3481 L 13.5091,-19.3376 L 13.4272,-19.3268 L 13.3928,-19.3202 L 13.4241,-19.3012
 L 17.2699,-17.3321 L 17.2349,-14.8812 L 9.88153,-10.006 z
M 9.75009,-18.7534 L 16.8118,-22.83 L 9.44843,-26.9694 L 7.09824,-25.54 L 8.2625,-24.9151 L 8.82402,-25.0293
 L 9.42401,-25.0703 L 10.0689,-25.0274 L 10.6745,-24.9006 L 11.2253,-24.6993 L 11.7057,-24.4321 L 12.1001,-24.1079
 L 12.3932,-23.7357 L 12.5695,-23.3244 L 12.6135,-22.8825 L 12.535,-22.4841 L 12.3537,-22.105 L 12.0772,-21.7554
 L 11.7133,-21.4458 L 11.2698,-21.1868 L 10.755,-20.9883 L 10.1765,-20.8611 L 9.54228,-20.8152 L 8.89589,-20.8523
 L 8.28574,-20.9631 L 7.72743,-21.1421 L 7.23602,-21.3837 L 6.82684,-21.6824 L 6.51523,-22.0328 L 6.3165,-22.4289
 L 6.24628,-22.8654 L 6.27197,-23.1497 L 6.34853,-23.4232 L 4.81006,-24.2354 L 2.47157,-22.8341 L 9.61972,-18.7875
 L 9.53163,-18.7524 L 2.34482,-22.5648 L 2.30771,-14.7111 L 4.65166,-13.3794 L 4.67363,-13.8849 L 4.68427,-14.1805
 L 4.69238,-14.4788 L 4.69589,-14.7432 L 4.6917,-14.9372 L 4.67812,-15.0243 L 4.38437,-15.3729 L 4.12724,-15.7677
 L 3.88202,-16.2984 L 3.71191,-16.8404 L 3.62012,-17.3776 L 3.61005,-17.8939 L 3.68515,-18.3735 L 3.84892,-18.8003
 L 4.10449,-19.1583 L 4.45537,-19.4315 L 4.87636,-19.5925 L 5.33075,-19.6289 L 5.80438,-19.5494 L 6.2831,-19.3623
 L 6.75273,-19.0763 L 7.19922,-18.6998 L 7.6084,-18.2413 L 7.96611,-17.7092 L 8.24052,-17.1353 L 8.4124,-16.5558
 L 8.48564,-15.9867 L 8.46387,-15.444 L 8.35126,-14.944 L 8.15186,-14.5021 L 7.86932,-14.1351 L 7.508,-13.8585
 L 7.49316,-13.761 L 7.48662,-13.5223 L 7.48651,-13.1898 L 7.49091,-12.8113 L 7.51337,-11.7862 L 9.85829,-10.4502
 L 9.86308,-10.4496 z
M 10.1932,-20.9478 L 10.7386,-21.0623 L 11.2239,-21.2407 L 11.6419,-21.4737 L 11.985,-21.7518 L 12.2457,-22.066
 L 12.4166,-22.4066 L 12.4904,-22.7646 L 12.449,-23.1571 L 12.2828,-23.5141 L 12.0064,-23.8304 L 11.6345,-24.1008
 L 11.1816,-24.32 L 10.6625,-24.4825 L 10.0917,-24.5834 L 9.48398,-24.617 L 8.96172,-24.5853 L 8.46924,-24.4961
 L 8.46709,-21.0273 L 9.01591,-20.9369 L 9.59531,-20.9065 z
M 8.02226,-17.2633 L 7.95947,-17.4571 L 7.89149,-17.5876 L 7.70526,-17.8581 L 7.36591,-18.3244 L 6.98438,-18.7222
 L 6.57314,-19.0442 L 6.14531,-19.2836 L 5.71356,-19.4331 L 5.29102,-19.4855 L 4.89043,-19.4341 L 4.5248,-19.2715
 L 4.22607,-19.0149 L 4.01523,-18.6937 L 3.88876,-18.3196 L 3.84267,-17.9039 L 3.87354,-17.4585 L 3.97772,-16.9947
 L 4.15155,-16.5244 L 4.3913,-16.0593 L 4.59375,-15.7577 L 4.81699,-15.4433 z
M 12.9565,-14.0479 L 13.2773,-14.1683 L 13.6091,-14.344 L 13.9421,-14.577 L 14.2663,-14.8694 L 14.572,-15.2234
 L 14.8492,-15.6411 L 15.0885,-16.1245 L 15.2796,-16.6758 L 14.8661,-16.9049 L 14.3883,-17.1636 L 13.8788,-17.4352
 L 12.895,-17.9528 L 11.997,-18.4195 L 11.7969,-18.1583 L 11.6136,-17.8734 L 11.2354,-17.071 L 11.023,-16.2645
 L 10.9993,-15.8861 L 11.0192,-15.5237 L 11.0832,-15.1828 L 11.1917,-14.8685 L 11.3355,-14.6026 L 11.5143,-14.3808
 L 11.7257,-14.2057 L 11.9667,-14.0803 L 12.1076,-14.0385 L 12.3419,-13.999 L 12.6358,-13.9922 z
M 13.1384,-13.7902 L 13.6187,-13.9595 L 14.0908,-14.2291 L 14.5408,-14.5923 L 14.9545,-15.0424 L 15.3178,-15.573
 L 15.5865,-16.05 L 15.7726,-16.5316 L 17.0446,-17.1334 L 17.0483,-17.2738 L 15.6285,-16.6748 L 15.4426,-16.169
 L 15.1736,-15.668 L 14.8898,-15.2451 L 14.5721,-14.8718 L 14.228,-14.5513 L 13.8643,-14.2868 L 13.4881,-14.0813
 L 13.1067,-13.9383 L 12.7271,-13.8607 L 12.3612,-13.8527 L 12.1304,-13.8846 L 11.91,-13.9514 L 11.6256,-14.1031
 L 11.3798,-14.3156 L 11.567,-14.1136 L 11.7918,-13.9488 L 12.2107,-13.7783 L 12.6644,-13.7276 z
M 25.2485,-3.91634 L 25.0388,-3.97734 L 24.8419,-4.07899 L 24.665,-4.22299 L 24.5143,-4.411 L 24.3898,-4.64299
 L 24.1698,-4 L 23.5849,-4 L 23.5849,-9.24799 L 24.4809,-9.24799 L 24.4809,-5.605 L 24.5188,-5.36099
 L 24.6129,-5.14766 L 24.7628,-4.965 L 24.9425,-4.82944 L 25.1469,-4.74811 L 25.3759,-4.72099 L 25.6057,-4.7561
 L 25.8127,-4.86143 L 25.9969,-5.03699 L 26.1407,-5.27011 L 26.2271,-5.54811 L 26.2559,-5.87099 L 26.2274,-6.1931
 L 26.1421,-6.46877 L 25.9998,-6.698 L 25.8184,-6.86966 L 25.6141,-6.97266 L 25.3869,-7.00699 L 25.161,-6.98488
 L 24.9606,-6.91855 L 24.7859,-6.808 L 24.7859,-7.58499 L 25.0143,-7.71165 L 25.3036,-7.78766 L 25.6539,-7.81299
 L 26.0231,-7.75377 L 26.3694,-7.57611 L 26.6929,-7.28 L 26.9534,-6.88699 L 27.1097,-6.41866 L 27.1618,-5.875
 L 27.1069,-5.32765 L 26.9418,-4.84833 L 26.6669,-4.437 L 26.3206,-4.13644 L 25.922,-3.95612 L 25.4709,-3.89601
 z
M 66.4419,-3.91634 L 66.2322,-3.97734 L 66.0352,-4.07899 L 65.8583,-4.22299 L 65.7077,-4.411 L 65.5832,-4.64299
 L 65.3632,-4 L 64.7782,-4 L 64.7782,-9.24799 L 65.6742,-9.24799 L 65.6742,-5.605 L 65.7122,-5.36099
 L 65.8062,-5.14766 L 65.9562,-4.965 L 66.1359,-4.82944 L 66.3402,-4.74811 L 66.5692,-4.72099 L 66.7991,-4.7561
 L 67.0061,-4.86143 L 67.1902,-5.03699 L 67.3341,-5.27011 L 67.4204,-5.54811 L 67.4492,-5.87099 L 67.4208,-6.1931
 L 67.3354,-6.46877 L 67.1932,-6.698 L 67.0118,-6.86966 L 66.8074,-6.97266 L 66.5802,-7.00699 L 66.3543,-6.98488
 L 66.154,-6.91855 L 65.9792,-6.808 L 65.9792,-7.58499 L 66.2077,-7.71165 L 66.497,-7.78766 L 66.8472,-7.81299
 L 67.2164,-7.75377 L 67.5628,-7.57611 L 67.8862,-7.28 L 68.1468,-6.88699 L 68.3031,-6.41866 L 68.3552,-5.875
 L 68.3002,-5.32765 L 68.1352,-4.84833 L 67.8602,-4.437 L 67.514,-4.13644 L 67.1153,-3.95612 L 66.6642,-3.89601
 z
M 43.3095,-4 L 43.3095,-9.24799 L 44.2055,-9.24799 L 44.2055,-6.40999 L 45.6675,-7.71799 L 46.8865,-7.71799
 L 45.2485,-6.34099 L 46.9775,-4 L 45.8805,-4 L 44.6165,-5.80499 L 44.2055,-5.46199 L 44.2055,-4
 z
M 12.6264,-3.91634 L 12.4168,-3.97734 L 12.2198,-4.07899 L 12.0429,-4.22299 L 11.8922,-4.411 L 11.7678,-4.64299
 L 11.5478,-4 L 10.9628,-4 L 10.9628,-9.24799 L 11.8588,-9.24799 L 11.8588,-5.605 L 11.8968,-5.36099
 L 11.9908,-5.14766 L 12.1408,-4.965 L 12.3204,-4.82944 L 12.5248,-4.74811 L 12.7538,-4.72099 L 12.9837,-4.7561
 L 13.1907,-4.86143 L 13.3748,-5.03699 L 13.5187,-5.27011 L 13.605,-5.54811 L 13.6338,-5.87099 L 13.6053,-6.1931
 L 13.52,-6.46877 L 13.3778,-6.698 L 13.1963,-6.86966 L 12.992,-6.97266 L 12.7648,-7.00699 L 12.5389,-6.98488
 L 12.3386,-6.91855 L 12.1638,-6.808 L 12.1638,-7.58499 L 12.3922,-7.71165 L 12.6816,-7.78766 L 13.0318,-7.81299
 L 13.401,-7.75377 L 13.7473,-7.57611 L 14.0708,-7.28 L 14.3313,-6.88699 L 14.4877,-6.41866 L 14.5398,-5.875
 L 14.4848,-5.32765 L 14.3198,-4.84833 L 14.0448,-4.437 L 13.6986,-4.13644 L 13.2999,-3.95612 L 12.8488,-3.89601
 z
M 62.5106,-4 L 62.5106,-9.24799 L 63.4066,-9.24799 L 63.4066,-4 z
M 77.9276,-4 L 76.2516,-8.92799 L 77.2036,-8.92799 L 78.4076,-5.12399 L 79.6256,-8.92799 L 80.5706,-8.92799
 L 78.8716,-4 z
M 15.5429,-4 L 15.5429,-8.92799 L 16.4389,-8.92799 L 16.4389,-4 z
M 2.70399,-4 L 2.70399,-8.92799 L 3.59999,-8.92799 L 3.59999,-6.87999 L 5.62599,-6.87999 L 5.62599,-6.04799
 L 3.59999,-6.04799 L 3.59999,-4 z
M 3.90399,-8.92799 L 5.823,-8.92799 L 5.823,-8.10399 L 3.90399,-8.09599 z
M 57.3047,-4 L 58.9877,-8.92799 L 60.1217,-8.92799 L 61.7367,-4 L 60.7847,-4 L 60.4417,-5.02399
 L 58.9117,-5.02399 L 59.1317,-5.73599 L 60.2207,-5.728 L 59.5357,-7.853 L 58.8347,-5.728 L 58.6067,-5.064
 L 58.2567,-4 z
M 30.0526,-4 L 30.0526,-8.92799 L 31.0276,-8.92799 L 33.1886,-5.435 L 33.1886,-8.92799 L 34.0846,-8.92799
 L 34.0846,-4 L 33.1776,-4 L 30.9486,-7.614 L 30.9486,-4 z
M 40.2847,-3.93123 L 39.8757,-4.10889 L 39.5194,-4.405 L 39.2277,-4.81644 L 39.0527,-5.29077 L 38.9944,-5.82799
 L 39.0527,-6.38689 L 39.2277,-6.86621 L 39.5194,-7.26599 L 39.8765,-7.54933 L 40.2878,-7.71933 L 40.7534,-7.77599
 L 40.9792,-7.76288 L 41.1889,-7.72354 L 41.3824,-7.65799 L 41.5579,-7.57188 L 41.7139,-7.46954 L 41.8504,-7.351
 L 42.0696,-7.08665 L 42.2193,-6.78032 L 42.2994,-6.43199 L 41.4034,-6.409 L 41.3512,-6.56233 L 41.2762,-6.69699
 L 41.1784,-6.81299 L 41.064,-6.90189 L 40.9384,-6.95522 L 40.8014,-6.97299 L 40.666,-6.96577 L 40.544,-6.94411
 L 40.4354,-6.90799 L 40.3382,-6.85721 L 40.2496,-6.79022 L 40.1694,-6.70699 L 40.0255,-6.465 L 39.9391,-6.16699
 L 39.9104,-5.81299 L 39.9375,-5.46344 L 40.0188,-5.17743 L 40.1544,-4.95499 L 40.3284,-4.79666 L 40.525,-4.70166
 L 40.7444,-4.67 L 40.9545,-4.68822 L 41.1221,-4.74287 L 41.2474,-4.834 L 41.334,-4.95644 L 41.386,-5.1051
 L 41.4034,-5.28 L 42.2994,-5.28 L 42.2546,-4.90121 L 42.1203,-4.56755 L 41.8964,-4.27899 L 41.5855,-4.05289
 L 41.2021,-3.91724 L 40.7464,-3.87201 z
M 7.35356,-3.94501 L 6.98289,-4.062 L 6.68333,-4.25699 L 6.48056,-4.50021 L 6.35889,-4.78322 L 6.31833,-5.10599
 L 6.36311,-5.42244 L 6.49745,-5.68643 L 6.72133,-5.89799 L 7.02367,-6.05243 L 7.392,-6.14511 L 7.82634,-6.17599
 L 8.04811,-6.16766 L 8.28677,-6.14265 L 8.54234,-6.101 L 8.54234,-5.536 L 8.35779,-5.57155 L 8.18011,-5.59288
 L 8.00934,-5.59999 L 7.60268,-5.54578 L 7.35867,-5.3831 L 7.27734,-5.112 L 7.29601,-4.98155 L 7.35201,-4.86354
 L 7.44534,-4.758 L 7.57967,-4.67577 L 7.75867,-4.62643 L 7.98233,-4.60999 L 8.214,-4.63744 L 8.41701,-4.71977
 L 8.59134,-4.85699 L 8.72633,-5.03621 L 8.81134,-5.24321 L 8.84633,-5.478 L 8.84633,-6.355 L 8.82901,-6.58232
 L 8.77701,-6.76833 L 8.69034,-6.91299 L 8.56433,-7.01688 L 8.39433,-7.07921 L 8.18034,-7.09999 L 7.96245,-7.08432
 L 7.78078,-7.03732 L 7.63533,-6.959 L 7.52979,-6.85243 L 7.46645,-6.71944 L 7.44534,-6.56 L 6.46333,-6.56
 L 6.51279,-6.94899 L 6.66112,-7.25865 L 6.90834,-7.489 L 7.24489,-7.64844 L 7.6599,-7.74411 L 8.15334,-7.77599
 L 8.82434,-7.68921 L 9.31601,-7.42888 L 9.62834,-6.995 L 9.69167,-6.80554 L 9.72968,-6.59454 L 9.74234,-6.362
 L 9.74234,-4.01299 L 8.97734,-4.01299 L 8.91034,-4.508 L 8.61934,-4.17355 L 8.24767,-3.9729 L 7.79533,-3.90601
 z
M 51.955,-4 L 51.955,-7.71199 L 52.851,-7.71199 L 52.851,-6.98499 L 53.1115,-7.42444 L 53.4465,-7.68811
 L 53.856,-7.77599 L 53.9502,-7.76888 L 54.0595,-7.74754 L 54.184,-7.71199 L 54.169,-6.834 L 54.0273,-6.85954
 L 53.8876,-6.87488 L 53.75,-6.87999 L 53.2505,-6.74121 L 52.9509,-6.32487 L 52.851,-5.631 L 52.851,-4
 z
M 36.3609,-3.93123 L 35.9516,-4.10889 L 35.5943,-4.405 L 35.3093,-4.80977 L 35.1383,-5.2841 L 35.0813,-5.82799
 L 35.1383,-6.38255 L 35.3093,-6.85954 L 35.5943,-7.25899 L 35.9485,-7.54622 L 36.3578,-7.71855 L 36.8223,-7.77599
 L 37.2974,-7.71599 L 37.696,-7.536 L 38.0183,-7.23599 L 38.1349,-7.06488 L 38.2303,-6.87688 L 38.3043,-6.672
 L 38.357,-6.46521 L 38.3887,-6.27022 L 38.3993,-6.08699 L 38.3958,-5.91554 L 38.3855,-5.75587 L 38.3683,-5.60799
 L 36.2823,-5.59999 L 36.2823,-6.17599 L 37.5613,-6.17599 L 37.5189,-6.5381 L 37.3919,-6.8111 L 37.1803,-6.995
 L 37.0774,-7.03777 L 36.9607,-7.06343 L 36.8303,-7.07199 L 36.5909,-7.0441 L 36.3903,-6.96043 L 36.2283,-6.821
 L 36.1057,-6.63844 L 36.022,-6.4241 L 35.9773,-6.17799 L 35.9773,-5.601 L 36.0085,-5.31654 L 36.0822,-5.06989
 L 36.1983,-4.86099 L 36.3591,-4.70265 L 36.5672,-4.60767 L 36.8223,-4.57599 L 37.143,-4.63289 L 37.364,-4.80354
 L 37.4853,-5.088 L 38.3913,-5.088 L 38.2941,-4.74232 L 38.1241,-4.44933 L 37.8813,-4.209 L 37.5707,-4.02177
 L 37.2177,-3.90945 L 36.8223,-3.87201 z
M 19.9756,-3.94501 L 19.605,-4.062 L 19.3054,-4.25699 L 19.1026,-4.50021 L 18.981,-4.78322 L 18.9404,-5.10599
 L 18.9852,-5.42244 L 19.1195,-5.68643 L 19.3434,-5.89799 L 19.6457,-6.05243 L 20.0141,-6.14511 L 20.4484,-6.17599
 L 20.6702,-6.16766 L 20.9088,-6.14265 L 21.1644,-6.101 L 21.1644,-5.536 L 20.9799,-5.57155 L 20.8022,-5.59288
 L 20.6314,-5.59999 L 20.2247,-5.54578 L 19.9807,-5.3831 L 19.8994,-5.112 L 19.9181,-4.98155 L 19.9741,-4.86354
 L 20.0674,-4.758 L 20.2017,-4.67577 L 20.3807,-4.62643 L 20.6044,-4.60999 L 20.8361,-4.63744 L 21.0391,-4.71977
 L 21.2134,-4.85699 L 21.3484,-5.03621 L 21.4334,-5.24321 L 21.4684,-5.478 L 21.4684,-6.355 L 21.4511,-6.58232
 L 21.3991,-6.76833 L 21.3124,-6.91299 L 21.1864,-7.01688 L 21.0164,-7.07921 L 20.8024,-7.09999 L 20.5845,-7.08432
 L 20.4028,-7.03732 L 20.2574,-6.959 L 20.1519,-6.85243 L 20.0885,-6.71944 L 20.0674,-6.56 L 19.0854,-6.56
 L 19.1349,-6.94899 L 19.2832,-7.25865 L 19.5304,-7.489 L 19.867,-7.64844 L 20.282,-7.74411 L 20.7754,-7.77599
 L 21.4464,-7.68921 L 21.9381,-7.42888 L 22.2504,-6.995 L 22.3137,-6.80554 L 22.3517,-6.59454 L 22.3644,-6.362
 L 22.3644,-4.01299 L 21.5994,-4.01299 L 21.5324,-4.508 L 21.2414,-4.17355 L 20.8697,-3.9729 L 20.4174,-3.90601
 z
M 48.3457,-3.94501 L 47.9751,-4.062 L 47.6755,-4.25699 L 47.4727,-4.50021 L 47.3511,-4.78322 L 47.3105,-5.10599
 L 47.3553,-5.42244 L 47.4896,-5.68643 L 47.7135,-5.89799 L 48.0159,-6.05243 L 48.3842,-6.14511 L 48.8185,-6.17599
 L 49.0403,-6.16766 L 49.279,-6.14265 L 49.5345,-6.101 L 49.5345,-5.536 L 49.35,-5.57155 L 49.1723,-5.59288
 L 49.0015,-5.59999 L 48.5949,-5.54578 L 48.3509,-5.3831 L 48.2695,-5.112 L 48.2882,-4.98155 L 48.3442,-4.86354
 L 48.4375,-4.758 L 48.5719,-4.67577 L 48.7509,-4.62643 L 48.9745,-4.60999 L 49.2062,-4.63744 L 49.4092,-4.71977
 L 49.5835,-4.85699 L 49.7185,-5.03621 L 49.8035,-5.24321 L 49.8385,-5.478 L 49.8385,-6.355 L 49.8212,-6.58232
 L 49.7692,-6.76833 L 49.6825,-6.91299 L 49.5565,-7.01688 L 49.3865,-7.07921 L 49.1725,-7.09999 L 48.9546,-7.08432
 L 48.773,-7.03732 L 48.6275,-6.959 L 48.522,-6.85243 L 48.4586,-6.71944 L 48.4375,-6.56 L 47.4555,-6.56
 L 47.505,-6.94899 L 47.6533,-7.25865 L 47.9005,-7.489 L 48.2371,-7.64844 L 48.6521,-7.74411 L 49.1455,-7.77599
 L 49.8165,-7.68921 L 50.3082,-7.42888 L 50.6205,-6.995 L 50.6839,-6.80554 L 50.7219,-6.59454 L 50.7345,-6.362
 L 50.7345,-4.01299 L 49.9695,-4.01299 L 49.9025,-4.508 L 49.6115,-4.17355 L 49.2399,-3.9729 L 48.7875,-3.90601
 z
M 72.2057,-3.93123 L 71.7963,-4.10889 L 71.439,-4.405 L 71.154,-4.80977 L 70.983,-5.2841 L 70.926,-5.82799
 L 70.983,-6.38255 L 71.154,-6.85954 L 71.439,-7.25899 L 71.7932,-7.54622 L 72.2025,-7.71855 L 72.667,-7.77599
 L 73.1421,-7.71599 L 73.5408,-7.536 L 73.863,-7.23599 L 73.9796,-7.06488 L 74.075,-6.87688 L 74.149,-6.672
 L 74.2018,-6.46521 L 74.2334,-6.27022 L 74.244,-6.08699 L 74.2405,-5.91554 L 74.2302,-5.75587 L 74.213,-5.60799
 L 72.127,-5.59999 L 72.127,-6.17599 L 73.406,-6.17599 L 73.3636,-6.5381 L 73.2366,-6.8111 L 73.025,-6.995
 L 72.9221,-7.03777 L 72.8054,-7.06343 L 72.675,-7.07199 L 72.4357,-7.0441 L 72.235,-6.96043 L 72.073,-6.821
 L 71.9504,-6.63844 L 71.8668,-6.4241 L 71.822,-6.17799 L 71.822,-5.601 L 71.8532,-5.31654 L 71.9269,-5.06989
 L 72.043,-4.86099 L 72.2039,-4.70265 L 72.4119,-4.60767 L 72.667,-4.57599 L 72.9878,-4.63289 L 73.2088,-4.80354
 L 73.33,-5.088 L 74.236,-5.088 L 74.1389,-4.74232 L 73.9689,-4.44933 L 73.726,-4.209 L 73.4154,-4.02177
 L 73.0624,-3.90945 L 72.667,-3.87201 z
M 54.7045,-5.85599 L 54.7045,-6.68799 L 56.8445,-6.68799 L 56.8445,-5.85599 z
M 75.1314,-3.95479 L 74.9818,-4.01111 L 74.8541,-4.105 L 74.7569,-4.22844 L 74.6985,-4.3721 L 74.6791,-4.536
 L 74.6985,-4.70122 L 74.7569,-4.84755 L 74.8541,-4.97499 L 74.9818,-5.07332 L 75.1314,-5.13232 L 75.3031,-5.15199
 L 75.4756,-5.13232 L 75.628,-5.07332 L 75.7601,-4.97499 L 75.8618,-4.84755 L 75.9228,-4.70122 L 75.9431,-4.536
 L 75.9228,-4.3721 L 75.8618,-4.22844 L 75.7601,-4.105 L 75.628,-4.01111 L 75.4756,-3.95479 L 75.3031,-3.936
 z
M 81.2633,-3.95479 L 81.1136,-4.01111 L 80.9859,-4.105 L 80.8887,-4.22844 L 80.8304,-4.3721 L 80.8109,-4.536
 L 80.8304,-4.70122 L 80.8887,-4.84755 L 80.9859,-4.97499 L 81.1136,-5.07332 L 81.2633,-5.13232 L 81.4349,-5.15199
 L 81.6075,-5.13232 L 81.7598,-5.07332 L 81.8919,-4.97499 L 81.9936,-4.84755 L 82.0546,-4.70122 L 82.0749,-4.536
 L 82.0546,-4.3721 L 81.9936,-4.22844 L 81.8919,-4.105 L 81.7598,-4.01111 L 81.6075,-3.95479 L 81.4349,-3.936
 z
M 16.7589,-4 L 16.7589,-4.83199 L 18.4869,-4.83199 L 18.4869,-4 z
" stroke="black" fill="lightgray" stroke-width="0.5"/></svg>
